<svg class="typst-doc" viewBox="0 0 512 512" width="512pt" height="512pt" xmlns="http://www.w3.org/2000/svg" xmlns:xlink="http://www.w3.org/1999/xlink" xmlns:h5="http://www.w3.org/1999/xhtml">
    <g>
        <g class="typst-group">
            <g>
                <path class="typst-shape" fill="#2f2f7f" fill-rule="nonzero" d="M 0 0m 416 32 h 32 v 32 h -32 Z m -32 32 h 32 v 32 h -32 Z m 64 0 h 32 v 32 h -32 Z m -96 32 h 32 v 32 h -32 Z m 128 0 h 32 v 32 h -32 Z m -160 32 h 32 v 32 h -32 Z m 160 0 h 32 v 32 h -32 Z m -256 32 h 32 v 32 h -32 Z m 32 0 h 32 v 32 h -32 Z m 224 0 h 32 v 32 h -32 Z m -352 32 h 32 v 32 h -32 Z m 32 0 h 32 v 32 h -32 Z m 32 0 h 32 v 32 h -32 Z m 32 0 h 32 v 32 h -32 Z m 224 0 h 32 v 32 h -32 Z m -320 32 h 32 v 32 h -32 Z m 32 0 h 32 v 32 h -32 Z m 256 0 h 32 v 32 h -32 Z m -288 32 h 32 v 32 h -32 Z m 256 0 h 32 v 32 h -32 Z m -224 32 h 32 v 32 h -32 Z m 192 0 h 32 v 32 h -32 Z m -192 32 h 32 v 32 h -32 Z m 64 0 h 32 v 32 h -32 Z m 64 0 h 32 v 32 h -32 Z m 64 0 h 32 v 32 h -32 Z m -224 32 h 32 v 32 h -32 Z m 64 0 h 32 v 32 h -32 Z m 128 0 h 32 v 32 h -32 Z m 64 0 h 32 v 32 h -32 Z "/>
                <path class="typst-shape" fill="#e8e2f4" fill-rule="nonzero" d="M 0 0m 416 64 h 32 v 32 h -32 Z m -32 32 h 32 v 32 h -32 Z m 32 0 h 32 v 32 h -32 Z m 32 0 h 32 v 32 h -32 Z m -96 32 h 32 v 32 h -32 Z m 64 0 h 32 v 32 h -32 Z m 32 0 h 32 v 32 h -32 Z m -160 32 h 32 v 32 h -32 Z m 32 0 h 32 v 32 h -32 Z m 32 0 h 32 v 32 h -32 Z m 32 0 h 32 v 32 h -32 Z m 32 0 h 32 v 32 h -32 Z m 32 0 h 32 v 32 h -32 Z m -192 32 h 32 v 32 h -32 Z m 32 0 h 32 v 32 h -32 Z m 32 0 h 32 v 32 h -32 Z m 32 0 h 32 v 32 h -32 Z m 32 0 h 32 v 32 h -32 Z m 32 0 h 32 v 32 h -32 Z m -224 32 h 32 v 32 h -32 Z m 32 0 h 32 v 32 h -32 Z m 32 0 h 32 v 32 h -32 Z m 32 0 h 32 v 32 h -32 Z m 32 0 h 32 v 32 h -32 Z m 32 0 h 32 v 32 h -32 Z m 32 0 h 32 v 32 h -32 Z m -224 32 h 32 v 32 h -32 Z m 32 0 h 32 v 32 h -32 Z m 32 0 h 32 v 32 h -32 Z m 32 0 h 32 v 32 h -32 Z m 32 0 h 32 v 32 h -32 Z m 32 0 h 32 v 32 h -32 Z m 32 0 h 32 v 32 h -32 Z m -160 32 h 32 v 32 h -32 Z m 32 0 h 32 v 32 h -32 Z m 32 0 h 32 v 32 h -32 Z m 32 0 h 32 v 32 h -32 Z m 32 0 h 32 v 32 h -32 Z m -128 32 h 32 v 32 h -32 Z m 128 0 h 32 v 32 h -32 Z m -160 32 h 32 v 32 h -32 Z m 192 0 h 32 v 32 h -32 Z "/>
                <path class="typst-shape" fill="#000000" fill-rule="nonzero" d="M 0 0m 384 128 h 32 v 32 h -32 Z "/>
                <path class="typst-shape" fill="#9b83ec" fill-rule="nonzero" d="M 0 0m 96 192 h 32 v 32 h -32 Z m -32 32 h 32 v 32 h -32 Z m -32 32 h 32 v 32 h -32 Z m 64 0 h 32 v 32 h -32 Z m -96 32 h 32 v 32 h -32 Z m 64 0 h 32 v 32 h -32 Z m 0 32 h 32 v 32 h -32 Z m -32 32 h 32 v 32 h -32 Z m -32 32 h 32 v 32 h -32 Z m 160 32 h 32 v 32 h -32 Z m 96 0 h 32 v 32 h -32 Z "/>
                <path class="typst-shape" fill="#000000" fill-rule="nonzero" d="M 0 0m 128 384 h 32 v 32 h -32 Z m 64 0 h 32 v 32 h -32 Z m 96 0 h 32 v 32 h -32 Z m 96 0 h 32 v 32 h -32 Z "/>
            </g>
        </g>
    </g>
</svg>
